<svg width="463" height="115" viewBox="0 0 463 115" fill="none" xmlns="http://www.w3.org/2000/svg">
<path d="M35.0305 44.6116C34.813 42.4153 33.8799 40.7092 32.2313 39.4931C30.5825 38.277 28.345 37.669 25.5188 37.669C23.5983 37.669 21.9766 37.9414 20.6542 38.4857C19.3316 39.0122 18.3169 39.7473 17.6104 40.691C16.9219 41.6348 16.5776 42.7056 16.5776 43.9035C16.5414 44.9019 16.7497 45.7731 17.2027 46.5173C17.6738 47.2614 18.3169 47.9057 19.1322 48.4503C19.9475 48.9766 20.8897 49.4395 21.9586 49.8387C23.0275 50.2199 24.169 50.5467 25.3827 50.8189L30.3833 52.0168C32.811 52.5613 35.0395 53.2874 37.0687 54.1949C39.0979 55.1024 40.8553 56.2185 42.341 57.5435C43.8266 58.8685 44.977 60.4294 45.7924 62.2263C46.6258 64.0232 47.0515 66.0832 47.0697 68.4064C47.0515 71.8186 46.182 74.7772 44.4606 77.2819C42.7577 79.7686 40.2936 81.7016 37.0687 83.081C33.8619 84.4422 29.9938 85.1228 25.4644 85.1228C20.9712 85.1228 17.0578 84.4332 13.7241 83.0538C10.4086 81.6743 7.81775 79.6323 5.95165 76.9281C4.10365 74.2055 3.13435 70.8387 3.04376 66.8275H14.4307C14.5575 68.697 15.092 70.2577 16.0341 71.5103C16.9944 72.7444 18.2716 73.6792 19.8659 74.3143C21.4784 74.9315 23.2992 75.2401 25.3284 75.2401C27.3214 75.2401 29.0517 74.9497 30.5192 74.3688C32.0048 73.788 33.1552 72.9803 33.9706 71.9457C34.7858 70.9113 35.1935 69.7224 35.1935 68.3792C35.1935 67.1268 34.8222 66.0742 34.0793 65.2211C33.3546 64.368 32.2856 63.642 30.8725 63.043C29.4774 62.444 27.7653 61.8997 25.7361 61.4096L19.6758 59.8849C14.9833 58.7414 11.2782 56.9537 8.56058 54.5215C5.84294 52.0894 4.49316 48.8133 4.51128 44.6932C4.49316 41.3172 5.38999 38.3678 7.20175 35.8449C9.03163 33.322 11.5409 31.3528 14.7296 29.937C17.9183 28.5213 21.5419 27.8135 25.6003 27.8135C29.7311 27.8135 33.3364 28.5213 36.4165 29.937C39.5146 31.3528 41.9243 33.322 43.6454 35.8449C45.3665 38.3678 46.2543 41.29 46.3086 44.6116H35.0305ZM76.9705 42.5151V51.2273H51.8323V42.5151H76.9705ZM57.5394 32.4961H69.1165V71.483C69.1165 72.5539 69.2795 73.3888 69.6057 73.9877C69.9317 74.5685 70.3848 74.9769 70.9645 75.2129C71.5624 75.4488 72.251 75.5667 73.03 75.5667C73.5736 75.5667 74.1169 75.5215 74.6605 75.4306C75.204 75.3217 75.6207 75.2401 75.9106 75.1857L77.7316 83.816C77.1517 83.9975 76.3365 84.2063 75.2855 84.4422C74.2348 84.6963 72.9575 84.8506 71.4537 84.9051C68.6637 85.0139 66.2178 84.6419 64.1161 83.7888C62.0326 82.9357 60.411 81.6107 59.2516 79.8138C58.092 78.017 57.5212 75.7482 57.5394 73.0076V32.4961ZM84.512 84.3333V42.5151H95.736V49.8115H96.1706C96.9317 47.2161 98.209 45.2558 100.003 43.931C101.796 42.5878 103.862 41.9162 106.199 41.9162C106.779 41.9162 107.404 41.9526 108.074 42.025C108.744 42.0977 109.333 42.1975 109.84 42.3246V52.6158C109.297 52.4525 108.545 52.3072 107.585 52.1801C106.625 52.053 105.746 51.9896 104.949 51.9896C103.246 51.9896 101.724 52.3616 100.383 53.1058C99.0606 53.8319 98.0096 54.8483 97.2306 56.1551C96.4697 57.4619 96.0891 58.9684 96.0891 60.6744V84.3333H84.512ZM132.906 85.15C128.613 85.15 124.917 84.2789 121.819 82.5365C118.738 80.7758 116.365 78.2893 114.698 75.0768C113.031 71.8459 112.198 68.0254 112.198 63.6147C112.198 59.3132 113.031 55.5379 114.698 52.289C116.365 49.0402 118.711 46.5083 121.737 44.6932C124.781 42.8781 128.35 41.9706 132.445 41.9706C135.198 41.9706 137.762 42.4153 140.135 43.3048C142.527 44.1759 144.611 45.4917 146.386 47.2523C148.18 49.013 149.575 51.2273 150.571 53.8953C151.568 56.5453 152.066 59.649 152.066 63.2065V66.3918H116.818V59.2043H141.168C141.168 57.5345 140.806 56.0552 140.081 54.7666C139.356 53.4779 138.351 52.4705 137.064 51.7446C135.796 51.0004 134.32 50.6284 132.635 50.6284C130.877 50.6284 129.319 51.0366 127.96 51.8535C126.62 52.652 125.569 53.732 124.808 55.0932C124.047 56.4364 123.657 57.9337 123.639 59.5855V66.419C123.639 68.4882 124.02 70.2759 124.781 71.7824C125.56 73.2889 126.656 74.4506 128.069 75.2673C129.482 76.084 131.158 76.4924 133.097 76.4924C134.383 76.4924 135.561 76.3109 136.63 75.9479C137.699 75.5849 138.614 75.0404 139.374 74.3143C140.135 73.5883 140.715 72.699 141.114 71.6463L151.821 72.3542C151.278 74.9315 150.164 77.1821 148.479 79.106C146.812 81.0117 144.656 82.5002 142.011 83.5711C139.383 84.6237 136.349 85.15 132.906 85.15ZM178.645 85.15C174.351 85.15 170.655 84.2789 167.556 82.5365C164.477 80.7758 162.103 78.2893 160.436 75.0768C158.769 71.8459 157.936 68.0254 157.936 63.6147C157.936 59.3132 158.769 55.5379 160.436 52.289C162.103 49.0402 164.449 46.5083 167.475 44.6932C170.519 42.8781 174.088 41.9706 178.182 41.9706C180.936 41.9706 183.5 42.4153 185.873 43.3048C188.265 44.1759 190.348 45.4917 192.124 47.2523C193.919 49.013 195.313 51.2273 196.31 53.8953C197.305 56.5453 197.804 59.649 197.804 63.2065V66.3918H162.556V59.2043H186.906C186.906 57.5345 186.544 56.0552 185.819 54.7666C185.094 53.4779 184.089 52.4705 182.803 51.7446C181.534 51.0004 180.058 50.6284 178.373 50.6284C176.615 50.6284 175.057 51.0366 173.698 51.8535C172.358 52.652 171.307 53.732 170.546 55.0932C169.785 56.4364 169.395 57.9337 169.377 59.5855V66.419C169.377 68.4882 169.758 70.2759 170.519 71.7824C171.298 73.2889 172.394 74.4506 173.807 75.2673C175.22 76.084 176.896 76.4924 178.835 76.4924C180.121 76.4924 181.299 76.3109 182.368 75.9479C183.437 75.5849 184.351 75.0404 185.113 74.3143C185.873 73.5883 186.453 72.699 186.852 71.6463L197.559 72.3542C197.016 74.9315 195.901 77.1821 194.217 79.106C192.551 81.0117 190.394 82.5002 187.749 83.5711C185.122 84.6237 182.087 85.15 178.645 85.15ZM227.563 42.5151V51.2273H202.425V42.5151H227.563ZM208.132 32.4961H219.709V71.483C219.709 72.5539 219.871 73.3888 220.197 73.9877C220.524 74.5685 220.977 74.9769 221.557 75.2129C222.154 75.4488 222.843 75.5667 223.621 75.5667C224.165 75.5667 224.708 75.5215 225.251 75.4306C225.795 75.3217 226.212 75.2401 226.503 75.1857L228.322 83.816C227.742 83.9975 226.927 84.2063 225.877 84.4422C224.827 84.6963 223.549 84.8506 222.045 84.9051C219.255 85.0139 216.808 84.6419 214.708 83.7888C212.624 82.9357 211.002 81.6107 209.842 79.8138C208.683 78.017 208.113 75.7482 208.132 73.0076V32.4961Z" fill="#87449A"/>
<path d="M352.827 84.3333V42.5151H364.404V84.3333H352.827ZM358.643 37.1245C356.921 37.1245 355.444 36.5527 354.212 35.4093C352.999 34.2478 352.393 32.8591 352.393 31.2438C352.393 29.6466 352.999 28.2762 354.212 27.1327C355.444 25.9712 356.921 25.3905 358.643 25.3905C360.363 25.3905 361.831 25.9712 363.046 27.1327C364.278 28.2762 364.894 29.6466 364.894 31.2438C364.894 32.8591 364.278 34.2478 363.046 35.4093C361.831 36.5527 360.363 37.1245 358.643 37.1245ZM385.254 60.1573V84.3333H373.677V42.5151H384.711V49.8931H385.201C386.125 47.4611 387.674 45.5371 389.848 44.1215C392.021 42.6876 394.658 41.9706 397.755 41.9706C400.656 41.9706 403.183 42.606 405.339 43.8763C407.494 45.1469 409.17 46.962 410.365 49.3216C411.561 51.6628 412.16 54.4581 412.16 57.707V84.3333H400.583V59.776C400.6 57.2169 399.948 55.2203 398.626 53.7865C397.304 52.3344 395.482 51.6084 393.164 51.6084C391.604 51.6084 390.229 51.9442 389.033 52.6158C387.854 53.2874 386.93 54.2673 386.261 55.5561C385.608 56.8267 385.273 58.3604 385.254 60.1573ZM440.307 85.15C436.014 85.15 432.318 84.2789 429.22 82.5365C426.14 80.7758 423.766 78.2893 422.099 75.0768C420.433 71.8459 419.599 68.0254 419.599 63.6147C419.599 59.3132 420.433 55.5379 422.099 52.289C423.766 49.0402 426.113 46.5083 429.138 44.6932C432.182 42.8781 435.752 41.9706 439.846 41.9706C442.599 41.9706 445.163 42.4153 447.537 43.3048C449.929 44.1759 452.012 45.4917 453.788 47.2523C455.58 49.013 456.975 51.2273 457.972 53.8953C458.969 56.5453 459.466 59.649 459.466 63.2065V66.3918H424.219V59.2043H448.569C448.569 57.5345 448.207 56.0552 447.482 54.7666C446.757 53.4779 445.752 52.4705 444.465 51.7446C443.198 51.0004 441.721 50.6284 440.036 50.6284C438.279 50.6284 436.72 51.0366 435.362 51.8535C434.02 52.652 432.97 53.732 432.209 55.0932C431.449 56.4364 431.059 57.9337 431.04 59.5855V66.419C431.04 68.4882 431.42 70.2759 432.182 71.7824C432.96 73.2889 434.057 74.4506 435.471 75.2673C436.883 76.084 438.559 76.4924 440.499 76.4924C441.784 76.4924 442.963 76.3109 444.03 75.9479C445.1 75.5849 446.014 75.0404 446.776 74.3143C447.537 73.5883 448.117 72.699 448.515 71.6463L459.223 72.3542C458.678 74.9315 457.565 77.1821 455.879 79.106C454.213 81.0117 452.056 82.5002 449.412 83.5711C446.785 84.6237 443.749 85.15 440.307 85.15Z" fill="#87449A"/>
<path d="M312.921 35.3123C313.759 34.4728 314.366 33.5129 314.647 32.6136C314.918 31.7492 314.939 30.7435 314.268 30.0714C313.596 29.399 312.594 29.4195 311.731 29.6911C310.832 29.9738 309.875 30.5808 309.037 31.4201C308.199 32.2596 307.593 33.2197 307.31 34.119C307.04 34.9832 307.019 35.9889 307.69 36.6612C308.36 37.3334 309.364 37.3129 310.227 37.0413C311.125 36.7586 312.083 36.1518 312.921 35.3123Z" fill="#87449A" stroke="#87449A" stroke-width="0.7"/>
<path d="M322.914 44.7034C322.242 45.3756 321.24 45.3552 320.377 45.0834C319.48 44.8009 318.521 44.1939 317.683 43.3544L322.914 44.7034ZM322.914 44.7034C323.585 44.031 323.564 43.0255 323.294 42.1611ZM322.914 44.7034L323.294 42.1611ZM318.873 37.7334C319.772 38.0159 320.729 38.6229 321.567 39.4624L318.873 37.7334ZM318.873 37.7334C318.01 37.4616 317.008 37.4411 316.336 38.1135ZM318.873 37.7334L316.336 38.1135ZM316.336 38.1135C315.665 38.7857 315.686 39.7913 315.957 40.6558ZM316.336 38.1135L315.957 40.6558ZM315.957 40.6558C316.239 41.5549 316.845 42.5149 317.683 43.3544L315.957 40.6558ZM323.294 42.1611C323.011 41.2618 322.405 40.3018 321.567 39.4624L323.294 42.1611Z" fill="#87449A"/>
<path d="M322.914 44.7034C322.242 45.3756 321.24 45.3552 320.377 45.0834C319.48 44.8009 318.521 44.1939 317.683 43.3544M322.914 44.7034L317.683 43.3544M322.914 44.7034C323.585 44.031 323.564 43.0255 323.294 42.1611M322.914 44.7034L323.294 42.1611M317.683 43.3544C316.845 42.5149 316.239 41.5549 315.957 40.6558M317.683 43.3544L315.957 40.6558M323.294 42.1611C323.011 41.2618 322.405 40.3018 321.567 39.4624M323.294 42.1611L321.567 39.4624M318.873 37.7334C319.772 38.0159 320.729 38.6229 321.567 39.4624M318.873 37.7334L321.567 39.4624M318.873 37.7334C318.01 37.4616 317.008 37.4411 316.336 38.1135M318.873 37.7334L316.336 38.1135M316.336 38.1135C315.665 38.7857 315.686 39.7913 315.957 40.6558M316.336 38.1135L315.957 40.6558" stroke="#87449A" stroke-width="0.7"/>
<path d="M322.106 59.8617C322.778 59.1894 322.759 58.1839 322.487 57.3195C322.204 56.4202 321.599 55.4601 320.761 54.6206C319.923 53.7811 318.965 53.1741 318.068 52.8916C317.205 52.6198 316.2 52.5993 315.529 53.2715C314.857 53.9438 314.878 54.9493 315.15 55.8137C315.431 56.713 316.038 57.6731 316.876 58.5126C317.714 59.3521 318.672 59.9591 319.57 60.2418C320.432 60.5134 321.437 60.5339 322.106 59.8617Z" fill="#87449A" stroke="#87449A" stroke-width="0.7"/>
<path d="M322.106 74.0889C322.778 73.4168 322.757 72.4111 322.485 71.5467C322.204 70.6474 321.597 69.6873 320.76 68.848C319.922 68.0085 318.963 67.4015 318.066 67.1188C317.203 66.8472 316.198 66.8267 315.529 67.4989C314.857 68.1712 314.878 69.1769 315.148 70.0411C315.431 70.9404 316.036 71.9005 316.874 72.74C317.712 73.5795 318.67 74.1865 319.568 74.469C320.43 74.7408 321.435 74.7613 322.106 74.0889Z" fill="#87449A" stroke="#87449A" stroke-width="0.7"/>
<path d="M312.921 64.8761C313.759 64.0366 314.366 63.0765 314.647 62.1772C314.918 61.3128 314.939 60.3073 314.268 59.635C313.596 58.9626 312.594 58.9831 311.731 59.2547C310.832 59.5374 309.875 60.1444 309.037 60.9837C308.199 61.8232 307.593 62.7833 307.31 63.6826C307.04 64.547 307.019 65.5527 307.69 66.2249C308.36 66.8972 309.364 66.8767 310.227 66.6051C311.125 66.3224 312.083 65.7156 312.921 64.8761Z" fill="#87449A" stroke="#87449A" stroke-width="0.7"/>
<path d="M312.406 83.2307C313.244 82.3914 313.851 81.4313 314.132 80.532C314.404 79.6676 314.425 78.6619 313.753 77.9898C313.082 77.3174 312.079 77.3379 311.216 77.6095C310.317 77.892 309.361 78.499 308.523 79.3385C307.685 80.178 307.078 81.1379 306.795 82.0372C306.525 82.9016 306.504 83.9073 307.176 84.5796C307.845 85.2518 308.85 85.2315 309.713 84.9597C310.61 84.6772 311.568 84.0702 312.406 83.2307Z" fill="#87449A" stroke="#87449A" stroke-width="0.7"/>
<path d="M312.921 49.7195C313.759 48.8802 314.366 47.9201 314.647 47.0208C314.918 46.1564 314.939 45.1509 314.268 44.4785C313.596 43.8062 312.594 43.8267 311.731 44.0985C310.832 44.381 309.875 44.988 309.037 45.8275C308.199 46.6668 307.593 47.6269 307.31 48.5262C307.04 49.3906 307.019 50.3963 307.69 51.0684C308.36 51.7408 309.364 51.7203 310.227 51.4485C311.125 51.166 312.083 50.559 312.921 49.7195Z" fill="#87449A" stroke="#87449A" stroke-width="0.7"/>
<path d="M266.047 96.2416C266.604 96.765 266.92 97.496 266.92 98.2612V103.165C266.92 104.48 267.346 105.678 268.002 106.534C268.661 107.392 269.51 107.865 270.367 107.865C271.224 107.865 272.074 107.392 272.732 106.534C273.388 105.678 273.815 104.48 273.815 103.165V11.4854C273.815 10.1702 273.388 8.97255 272.732 8.11643C272.074 7.25796 271.224 6.78483 270.367 6.78483C269.51 6.78483 268.661 7.25796 268.002 8.11643C267.346 8.97255 266.92 10.1702 266.92 11.4854V24.0114V24.0245V24.0423V48.3374C266.92 48.347 266.92 48.3652 266.92 48.3838V76.0919C266.92 76.8627 266.598 77.5987 266.036 78.1228C265.471 78.6464 264.715 78.9113 263.948 78.8538M266.047 96.2416L264.155 93.6573V94.3282C265.682 94.3282 266.92 93.0883 266.92 91.5588V83.4127C266.92 82.6486 266.604 81.9183 266.049 81.3949C265.492 80.8714 264.746 80.6014 263.985 80.6485C263.298 80.6909 262.328 80.6501 261.427 80.4956C260.977 80.4185 260.56 80.3158 260.212 80.1885C259.856 80.0584 259.615 79.9183 259.481 79.7908H259.479C259.45 79.7627 259.439 79.7469 259.435 79.7414M266.047 96.2416C265.49 95.7181 264.742 95.4486 263.981 95.4971L263.979 95.4973C263.981 95.4971 263.56 95.5234 262.904 95.5265C262.247 95.5295 261.365 95.5094 260.447 95.4184C259.59 95.3335 258.938 95.2091 258.452 95.0795L266.047 96.2416ZM263.948 78.8538C263.948 78.8536 263.948 78.8536 263.946 78.8536L263.998 78.1847L263.948 78.8538ZM263.948 78.8538C263.248 78.8034 262.265 78.8306 261.358 78.9688C260.904 79.038 260.487 79.1323 260.141 79.2509C259.783 79.373 259.554 79.5041 259.433 79.6181C259.431 79.6197 259.429 79.621 259.427 79.6223M259.427 79.6223C259.427 79.6193 259.427 79.6164 259.427 79.6137C259.429 79.603 259.429 79.597 259.429 79.5947C259.431 79.5928 259.429 79.5992 259.425 79.6105C259.423 79.612 259.424 79.6135 259.424 79.6153C259.42 79.6218 259.418 79.6279 259.414 79.6331C259.412 79.6383 259.408 79.6415 259.408 79.6425C259.406 79.6442 259.412 79.6379 259.427 79.6223ZM259.427 79.6223C259.427 79.6296 259.427 79.6384 259.427 79.649C259.427 79.7092 259.433 79.7347 259.435 79.7414M259.435 79.7414C259.433 79.7377 259.433 79.7379 259.435 79.7414C259.435 79.7437 259.435 79.7431 259.435 79.7414ZM312.462 12.5228C308.433 10.306 304.18 9.00971 299.789 8.66224C298.725 4.44172 295.31 1.24583 291.158 1.24583C286.991 1.24583 283.565 4.46836 282.516 8.71593H279.009C277.963 4.46836 274.536 1.24583 270.367 1.24583C266.2 1.24583 262.772 4.46836 261.725 8.71593H255.052C253.294 8.71593 251.606 9.22315 250.045 10.2073C248.625 11.1023 247.378 12.351 246.331 13.9037C244.29 16.932 243.184 20.8723 243.184 24.9933V89.806C243.184 93.9272 244.29 97.8675 246.331 100.896C247.378 102.448 248.625 103.697 250.045 104.592C251.606 105.576 253.294 106.083 255.052 106.083H261.763C262.852 110.256 266.248 113.404 270.367 113.404C274.486 113.404 277.882 110.256 278.973 106.083H282.554C283.645 110.256 287.041 113.404 291.158 113.404C295.31 113.404 298.725 110.208 299.789 105.988C304.18 105.64 308.433 104.344 312.462 102.127C317.013 99.622 321.083 96.0539 324.557 91.5339C327.999 87.055 330.693 81.8555 332.57 76.0838C334.504 70.1341 335.484 63.8223 335.484 57.3252C335.484 50.8279 334.504 44.5161 332.57 38.5664C330.693 32.7949 327.999 27.5952 324.557 23.1163C321.083 18.5963 317.013 15.0282 312.462 12.5228ZM253.515 98.6407C254.468 99.5359 255.79 100.155 257.468 100.544H255.052C253.651 100.544 252.165 99.6523 250.913 97.7964C249.53 95.7432 248.713 92.8311 248.713 89.806V24.9933C248.713 21.9684 249.53 19.0561 250.913 17.0031C252.165 15.1471 253.651 14.2549 255.052 14.2549H261.39V22.2667L254.501 25.5379C253.506 26.0099 252.92 27.003 252.92 28.0414C252.92 28.3985 252.989 28.7607 253.135 29.108L261.39 48.9097V73.3853C261.367 73.3876 261.342 73.3899 261.318 73.3924C258.915 73.6377 256.984 74.3379 255.674 75.556C254.514 76.6327 253.898 78.057 253.898 79.6492C253.898 81.2697 254.52 82.7227 255.693 83.8266C257.273 85.3152 259.6 85.873 261.39 86.0806V88.9364C260.635 89.0081 259.785 89.1146 258.928 89.2737C257.29 89.5775 255.907 90.023 254.841 90.6167C252.36 91.9977 251.943 93.9678 251.943 95.0645C251.943 96.4388 252.496 97.681 253.515 98.6407ZM282.183 14.2549V100.544H279.344V14.2549H282.183ZM329.954 57.3252C329.954 80.0758 316.679 98.532 300.135 100.39V14.2601C316.679 16.1182 329.954 34.5744 329.954 57.3252ZM291.158 6.78483C292.015 6.78483 292.865 7.25796 293.523 8.11643C294.179 8.97255 294.606 10.1702 294.606 11.4854V103.165C294.606 104.48 294.179 105.678 293.523 106.534C292.865 107.392 292.015 107.865 291.158 107.865C290.301 107.865 289.452 107.392 288.795 106.534C288.139 105.678 287.711 104.48 287.711 103.165V11.4854C287.711 10.1702 288.139 8.97253 288.795 8.11641C289.452 7.25796 290.301 6.78483 291.158 6.78483ZM259.253 29.4114L261.39 28.3962V34.5393L259.253 29.4114Z" fill="#87449A"/>
<path d="M266.047 96.2416C266.604 96.765 266.92 97.496 266.92 98.2612V103.165C266.92 104.48 267.346 105.678 268.002 106.534C268.661 107.392 269.51 107.865 270.367 107.865C271.224 107.865 272.074 107.392 272.732 106.534C273.388 105.678 273.815 104.48 273.815 103.165V11.4854C273.815 10.1702 273.388 8.97255 272.732 8.11643C272.074 7.25796 271.224 6.78483 270.367 6.78483C269.51 6.78483 268.661 7.25796 268.002 8.11643C267.346 8.97255 266.92 10.1702 266.92 11.4854V24.0114V24.0245V24.0423V48.3374C266.92 48.347 266.92 48.3652 266.92 48.3838V76.0919C266.92 76.8627 266.598 77.5987 266.036 78.1228M266.047 96.2416L264.155 93.6573V94.3282C265.682 94.3282 266.92 93.0883 266.92 91.5588V83.4127C266.92 82.6486 266.604 81.9183 266.049 81.3949C265.492 80.8714 264.746 80.6014 263.985 80.6485C263.298 80.6909 262.328 80.6501 261.427 80.4956C260.977 80.4185 260.56 80.3158 260.212 80.1885C259.856 80.0584 259.615 79.9183 259.481 79.7908H259.479C259.45 79.7627 259.439 79.7469 259.435 79.7414M266.047 96.2416C265.49 95.7181 264.742 95.4486 263.981 95.4971L263.979 95.4973C263.981 95.4971 263.56 95.5234 262.904 95.5265C262.247 95.5295 261.365 95.5094 260.447 95.4184C259.59 95.3335 258.938 95.2091 258.452 95.0795L266.047 96.2416ZM266.036 78.1228L265.58 77.6307M266.036 78.1228C265.471 78.6464 264.715 78.9113 263.948 78.8538M263.948 78.8538C263.948 78.8536 263.948 78.8536 263.946 78.8536L263.998 78.1847L263.948 78.8538ZM263.948 78.8538C263.248 78.8034 262.265 78.8306 261.358 78.9688C260.904 79.038 260.487 79.1323 260.141 79.2509C259.783 79.373 259.554 79.5041 259.433 79.6181C259.431 79.6197 259.429 79.621 259.427 79.6223M259.435 79.7414C259.433 79.7347 259.427 79.7092 259.427 79.649C259.427 79.6384 259.427 79.6296 259.427 79.6223M259.435 79.7414C259.433 79.7379 259.433 79.7377 259.435 79.7414ZM259.435 79.7414C259.435 79.7431 259.435 79.7437 259.435 79.7414ZM259.427 79.6223C259.427 79.6193 259.427 79.6164 259.427 79.6137C259.429 79.603 259.429 79.597 259.429 79.5947C259.431 79.5928 259.429 79.5992 259.425 79.6105C259.423 79.612 259.424 79.6135 259.424 79.6153C259.42 79.6218 259.418 79.6279 259.414 79.6331C259.412 79.6383 259.408 79.6415 259.408 79.6425C259.406 79.6442 259.412 79.6379 259.427 79.6223ZM312.462 12.5228L312.204 12.9932M312.462 12.5228C308.433 10.306 304.18 9.00971 299.789 8.66224C298.725 4.44172 295.31 1.24583 291.158 1.24583C286.991 1.24583 283.565 4.46836 282.516 8.71593H279.009C277.963 4.46836 274.536 1.24583 270.367 1.24583C266.2 1.24583 262.772 4.46836 261.725 8.71593H255.052C253.294 8.71593 251.606 9.22315 250.045 10.2073C248.625 11.1023 247.378 12.351 246.331 13.9037C244.29 16.932 243.184 20.8723 243.184 24.9933V89.806C243.184 93.9272 244.29 97.8675 246.331 100.896C247.378 102.448 248.625 103.697 250.045 104.592C251.606 105.576 253.294 106.083 255.052 106.083H261.763C262.852 110.256 266.248 113.404 270.367 113.404C274.486 113.404 277.882 110.256 278.973 106.083H282.554C283.645 110.256 287.041 113.404 291.158 113.404C295.31 113.404 298.725 110.208 299.789 105.988C304.18 105.64 308.433 104.344 312.462 102.127C317.013 99.622 321.083 96.0539 324.557 91.5339C327.999 87.055 330.693 81.8555 332.57 76.0838C334.504 70.1341 335.484 63.8223 335.484 57.3252C335.484 50.8279 334.504 44.5161 332.57 38.5664C330.693 32.7949 327.999 27.5952 324.557 23.1163C321.083 18.5963 317.013 15.0282 312.462 12.5228ZM253.515 98.6407L253.975 98.1515M253.515 98.6407C254.468 99.5359 255.79 100.155 257.468 100.544H255.052C253.651 100.544 252.165 99.6523 250.913 97.7964C249.53 95.7432 248.713 92.8311 248.713 89.806V24.9933C248.713 21.9684 249.53 19.0561 250.913 17.0031C252.165 15.1471 253.651 14.2549 255.052 14.2549H261.39V22.2667L254.501 25.5379C253.506 26.0099 252.92 27.003 252.92 28.0414C252.92 28.3985 252.989 28.7607 253.135 29.108L261.39 48.9097V73.3853C261.367 73.3876 261.342 73.3899 261.318 73.3924C258.915 73.6377 256.984 74.3379 255.674 75.556C254.514 76.6327 253.898 78.057 253.898 79.6492C253.898 81.2697 254.52 82.7227 255.693 83.8266C257.273 85.3152 259.6 85.873 261.39 86.0806V88.9364C260.635 89.0081 259.785 89.1146 258.928 89.2737C257.29 89.5775 255.907 90.023 254.841 90.6167C252.36 91.9977 251.943 93.9678 251.943 95.0645C251.943 96.4388 252.496 97.681 253.515 98.6407ZM282.183 14.2549V100.544H279.344V14.2549H282.183ZM329.954 57.3252C329.954 80.0758 316.679 98.532 300.135 100.39V14.2601C316.679 16.1182 329.954 34.5744 329.954 57.3252ZM291.158 6.78483C292.015 6.78483 292.865 7.25796 293.523 8.11643C294.179 8.97255 294.606 10.1702 294.606 11.4854V103.165C294.606 104.48 294.179 105.678 293.523 106.534C292.865 107.392 292.015 107.865 291.158 107.865C290.301 107.865 289.452 107.392 288.795 106.534C288.139 105.678 287.711 104.48 287.711 103.165V11.4854C287.711 10.1702 288.139 8.97253 288.795 8.11641C289.452 7.25796 290.301 6.78483 291.158 6.78483ZM259.253 29.4114L261.39 28.3962V34.5393L259.253 29.4114Z" stroke="#87449A" stroke-width="0.7"/>
<path d="M414.343 6.50143V2.61364H432.628V6.50143H425.811V24.9167H421.16V6.50143H414.343ZM435.639 2.61364H441.444L447.576 17.5985H447.836L453.966 2.61364H459.77V24.9167H455.206V10.4001H455.022L449.259 24.8078H446.15L440.39 10.3456H440.204V24.9167H435.639V2.61364Z" fill="#87449A"/>
</svg>
